# xmcd
#
# Track frame offsets:
#	150
#	19391
#	34610
#	49169
#	66878
#	85682
#	105162
#	123337
#	141420
#	160350
#	177609
#	195480
#	213668
#	230590
#	247391
#	260462
#	276539
#	291658
#	305151
#	320353
#
# Disc length: 4440 seconds
#
# Revision: 1
# Processed by: cddbd v1.5.2PL0 Copyright (c) Steve Scherf et al.
# Submitted via: audiograbber 1.83.01
#
DISCID=3f115614
DTITLE=Various Artist - CDX 426
DYEAR=2007
DGENRE=Country
TTITLE0=Tim McGraw - If you're reading this
TTITLE1=Kristina Cornell - It's a girl thing
TTITLE2=Doug Stone - Nice problem
TTITLE3=Brad Paisley - Online
TTITLE4=Billy Currington - Tangled up
TTITLE5=Pam Tillis - The hard way
TTITLE6=Clint Black - The strong one
TTITLE7=Tracy Lawrence - Til I was a Daddy too
TTITLE8=Bill Wence - Angelene
TTITLE9=Mike Aiken - Back to the beach
TTITLE10=John Tigert - Coming home
TTITLE11=Blue Granite - Going to Memphis (thanks to Elvis)
TTITLE12=Zachary Hunter - In your dreams
TTITLE13=Jokers Wild Band - Please catch me a.k.a. You're everything I ever hop
TTITLE13=ed you'd be)
TTITLE14=Trent Summer and the New Row Mob - Never loved her anyway
TTITLE15=Brad Colerick and Suzy Bogguss - RIng of fire
TTITLE16=Keith Bryant - She danced
TTITLE17=Billy Chernoff - Through hell with you
TTITLE18=Veronica Ballestrini - What's up with that
TTITLE19=The Roys - Workin' girl blues
EXTD=
EXTT0=
EXTT1=
EXTT2=
EXTT3=
EXTT4=
EXTT5=
EXTT6=
EXTT7=
EXTT8=
EXTT9=
EXTT10=
EXTT11=
EXTT12=
EXTT13=
EXTT14=
EXTT15=
EXTT16=
EXTT17=
EXTT18=
EXTT19=
PLAYORDER=
